<?xml version="1.0" encoding="UTF-8" standalone="no"?>
<!-- Generator: Adobe Illustrator 27.5.0, SVG Export Plug-In . SVG Version: 6.00 Build 0)  -->

<svg
   version="1.1"
   id="Слой_1"
   x="0px"
   y="0px"
   viewBox="0 0 25 25"
   xml:space="preserve"
   sodipodi:docname="search.svg"
   width="25"
   height="25"
   inkscape:version="1.1 (c68e22c387, 2021-05-23)"
   xmlns:inkscape="http://www.inkscape.org/namespaces/inkscape"
   xmlns:sodipodi="http://sodipodi.sourceforge.net/DTD/sodipodi-0.dtd"
   xmlns="http://www.w3.org/2000/svg"
   xmlns:svg="http://www.w3.org/2000/svg"><defs
   id="defs844" /><sodipodi:namedview
   id="namedview842"
   pagecolor="#ffffff"
   bordercolor="#666666"
   borderopacity="1.0"
   inkscape:pageshadow="2"
   inkscape:pageopacity="0.0"
   inkscape:pagecheckerboard="0"
   showgrid="false"
   inkscape:zoom="1.3483333"
   inkscape:cx="299.62917"
   inkscape:cy="240.66749"
   inkscape:window-width="1920"
   inkscape:window-height="1017"
   inkscape:window-x="-8"
   inkscape:window-y="-8"
   inkscape:window-maximized="1"
   inkscape:current-layer="Слой_1" />
<style
   type="text/css"
   id="style835">
	.st0{fill:#618150;}
</style>
<g
   id="g839"
   transform="matrix(0.04166499,0,0,0.04166499,-8.1536499e-4,6.3044632e-4)"
   style="fill:#ffffff;stroke-width:24.001">
	<path
   class="st0"
   d="m 184.6,473.9 c -23.1,17.1 -45.2,35.3 -66.6,54.4 -5.1,4.1 -11.4,6.4 -17.8,6.4 l -5.3,-0.1 c -4.4,-0.2 -8.6,-1.5 -12.4,-3.7 -8.8,-5.1 -13.8,-14.7 -13.5,-24.7 -0.5,-6.6 1,-13 4.7,-18.7 0.5,-0.8 1.1,-1.7 1.8,-2.4 18.5,-21.6 36.1,-43.8 52.6,-67 11.8,-16.7 23.3,-33.9 33.1,-51.9 l -10.9,-10.8 c -6.6,3.5 -13.6,8.1 -19.9,12 -34.6,22.5 -66.9,48.1 -97.7,75.2 -2,1.9 -4,3.8 -5.8,5.9 C 12.7,464 4.7,485 4.5,506.1 c -0.8,17 3.3,34.4 11.9,49.1 17.5,30.1 50.1,46.9 84.7,44.6 21.3,-0.8 42.3,-9.7 57.6,-24.5 3.5,-3.4 6.7,-7.2 9.9,-10.9 23.1,-26.8 45.2,-54.6 64.9,-84.1 5.5,-8.4 11.5,-17.5 16.2,-26.3 0,0 -14.1,-14 -14.1,-14 -17.6,10 -34.6,21.8 -51,33.9 z M 432.7,285.6 c -14.2,25 -42.4,42.4 -71.4,44 -26.1,1.8 -52,-7.6 -71.4,-26 l -13.9,13 c 7.6,8.9 16.4,16.7 26.3,23 17.6,11.3 38.3,17.7 59.1,18.6 46.9,2.4 92.7,-24.6 114.6,-66.3 6,-11.3 10.3,-23.5 12.8,-36.1 1.2,-6.3 1.9,-12.8 2.3,-19.2 h -47 c 0.2,4.2 0.3,8.4 -0.1,12.6 -0.9,12.8 -4.8,25.3 -11.3,36.4 z M 431.8,8.8 C 405.6,1.2 378.4,-0.9 351.1,0.3 290.6,1.9 245.6,29.9 203.4,70.6 l -19.6,18.5 9.5,26.6 c 0,0 0.1,0.3 0.1,0.4 0,0 0.1,0.2 0.1,0.2 6.2,13.1 14.8,25 24.1,36 45.2,53.8 114.7,75 181,50.9 21.3,-7.7 40.5,-18.3 58.6,-31.6 0.9,-0.7 2.8,-2.1 3.7,-2.8 l -11.5,-17.9 c -35.5,15.3 -78,23.8 -114.4,8.8 -22.9,-9.2 -40,-26.5 -51.1,-47.5 20.8,-18.8 42.5,-31.4 72.5,-33.6 9.3,-0.9 19.6,-1.4 29.2,-1.1 78.1,2.3 143.1,67.2 148.8,144.8 6.6,70.1 -36.6,139.4 -102,165.4 C 301.9,439.4 171.9,321.5 201.7,186.3 l -23.9,-6 c -6.6,23.7 -8.9,48.6 -6.8,73.3 4.1,49.8 27.3,97.8 63.7,132.4 C 361.2,505.3 566.6,429.7 592.9,259.2 610.8,148.4 539.9,38.9 431.8,8.8 Z M 274.2,86.9 c 0,-0.3 -0.1,-0.5 -0.1,-0.8 0,0 0,0 0,0 v 0.1 0 c 0,0 0.1,0.2 0.1,0.2 0.1,0.1 0.1,0.2 0,0.5 z"
   id="path837"
   style="fill:#ffffff;stroke-width:24.001" />
</g>
</svg>
